<svg width="24" height="24" viewBox="0 0 24 24" fill="none" xmlns="http://www.w3.org/2000/svg">
<path fill-rule="evenodd" clip-rule="evenodd" d="M17.5947 2H5.59473C4.49473 2 3.59473 2.9 3.59473 4V20C3.59473 21.1 4.49473 22 5.59473 22H12.9939C11.4298 20.9171 10.4053 19.1099 10.4053 17.0635C10.4053 13.7498 13.0916 11.0635 16.4053 11.0635C17.5773 11.0635 18.6708 11.3995 19.5947 11.9805V4C19.5947 2.9 18.6947 2 17.5947 2ZM8.59473 4H5.59473V8L7.09473 6.4L8.59473 8V4Z" fill="white"/>
<path fill-rule="evenodd" clip-rule="evenodd" d="M16.4053 13.0635C16.9576 13.0635 17.4053 13.5112 17.4053 14.0635L17.4053 20.0635C17.4053 20.6158 16.9576 21.0635 16.4053 21.0635C15.853 21.0635 15.4053 20.6158 15.4053 20.0635L15.4053 14.0635C15.4053 13.5112 15.853 13.0635 16.4053 13.0635Z" fill="white"/>
<path fill-rule="evenodd" clip-rule="evenodd" d="M20.4053 17.0635C20.4053 17.6158 19.9576 18.0635 19.4053 18.0635H13.4053C12.853 18.0635 12.4053 17.6158 12.4053 17.0635C12.4053 16.5112 12.853 16.0635 13.4053 16.0635H19.4053C19.9576 16.0635 20.4053 16.5112 20.4053 17.0635Z" fill="white"/>
</svg>
